<?xml version="1.0" standalone="no"?>
<!DOCTYPE svg PUBLIC "-//W3C//DTD SVG 20010904//EN"
 "http://www.w3.org/TR/2001/REC-SVG-20010904/DTD/svg10.dtd">
<svg version="1.0" xmlns="http://www.w3.org/2000/svg"
 width="68.000000pt" height="68.000000pt" viewBox="0 0 68.000000 68.000000"
 preserveAspectRatio="xMidYMid meet">
<metadata>
Created by potrace 1.10, written by Peter Selinger 2001-2011
</metadata>
<g transform="translate(0.000000,68.000000) scale(0.100000,-0.100000)"
fill="#000000" stroke="none">
<path d="M168 542 c-23 -5 -34 -48 -18 -67 18 -21 46 -18 64 7 24 34 -4 70
-46 60z"/>
<path d="M259 497 c-36 -29 -84 -65 -107 -81 -28 -19 -42 -36 -42 -51 0 -37
13 -38 42 -3 l27 33 1 -55 0 -55 -62 0 c-52 0 -63 -3 -66 -17 -3 -16 8 -18
133 -18 125 0 136 2 133 18 -2 12 -13 17 -38 17 l-35 1 -3 79 -3 78 47 48 c26
27 46 51 43 53 -3 3 -34 -18 -70 -47z"/>
<path d="M350 543 c0 -5 18 -27 40 -48 l40 -39 0 -87 0 -88 -35 6 c-31 5 -35
3 -35 -15 0 -20 6 -21 130 -24 l130 -3 0 24 c0 22 -2 23 -60 19 l-60 -4 0 37
c0 21 -3 46 -7 56 -4 11 7 6 30 -16 l37 -35 0 31 c0 27 -9 39 -62 79 -35 26
-82 63 -105 82 -24 19 -43 30 -43 25z"/>
<path d="M471 534 c-25 -18 -27 -37 -5 -58 35 -35 88 0 65 43 -15 27 -35 32
-60 15z"/>
<path d="M290 355 c0 -18 -16 -20 -23 -2 -3 6 -5 -4 -5 -23 0 -19 2 -27 5 -17
5 21 23 23 23 2 0 -8 5 -15 10 -15 6 0 10 16 10 35 0 19 -4 35 -10 35 -5 0
-10 -7 -10 -15z"/>
<path d="M370 335 c0 -29 4 -35 20 -35 30 0 36 28 12 51 -29 26 -32 24 -32
-16z"/>
<path d="M321 328 c-1 -22 4 -28 19 -28 15 0 20 6 19 28 l0 27 -11 -25 -11
-25 -7 25 -8 25 -1 -27z"/>
<path d="M350 197 c0 -38 15 -51 23 -19 4 16 5 16 6 0 1 -14 10 -18 36 -18 28
0 35 4 35 20 0 11 -7 20 -15 20 -8 0 -15 5 -15 10 0 24 -20 7 -21 -17 0 -16
-3 -22 -6 -13 -3 8 -14 23 -25 34 -18 19 -18 19 -18 -17z"/>
<path d="M154 190 c-1 -17 3 -30 7 -30 5 0 9 8 9 18 1 16 1 16 11 0 16 -28 29
-21 28 15 0 24 -2 27 -8 14 -6 -17 -8 -17 -20 -3 -19 23 -26 20 -27 -14z"/>
<path d="M233 203 c-22 -8 -15 -43 7 -43 13 0 20 7 20 19 0 22 -9 30 -27 24z"/>
<path d="M305 200 c-3 -5 -12 -7 -20 -3 -11 3 -15 -2 -15 -17 0 -16 4 -20 15
-16 9 3 15 0 15 -9 0 -8 9 -15 20 -15 15 0 20 7 20 29 0 28 -24 49 -35 31z"/>
<path d="M467 203 c-4 -3 -7 -14 -7 -24 0 -15 7 -18 35 -17 19 1 35 5 35 9 0
4 3 15 7 24 5 15 3 16 -15 6 -14 -7 -23 -8 -27 -1 -7 12 -19 13 -28 3z"/>
</g>
</svg>
